<svg width="28" height="23" viewBox="0 0 28 23" fill="none" xmlns="http://www.w3.org/2000/svg">
<path d="M24.89 0.0700531H16.34C16.22 0.0700531 16.115 0.130053 16.025 0.250053C15.935 0.370052 15.89 0.505053 15.89 0.655052C15.89 0.805054 15.935 0.925053 16.025 1.01505C16.115 1.10505 16.22 1.15005 16.34 1.15005H24.89C25.31 1.15005 25.67 1.30005 25.97 1.60005C26.27 1.90005 26.42 2.29005 26.42 2.77005V15.5501H1.58V2.77005C1.58 2.29005 1.73 1.90005 2.03 1.60005C2.33 1.30005 2.69 1.15005 3.11 1.15005H11.66C11.78 1.15005 11.9 1.10505 12.02 1.01505C12.14 0.925053 12.2 0.805054 12.2 0.655052C12.2 0.505053 12.14 0.370052 12.02 0.250053C11.9 0.130053 11.78 0.0700531 11.66 0.0700531H3.11C2.39 0.0700531 1.775 0.340054 1.265 0.880053C0.755 1.42005 0.5 2.05005 0.5 2.77005V20.2301C0.5 20.9501 0.755 21.5801 1.265 22.1201C1.775 22.6601 2.39 22.9301 3.11 22.9301H24.89C25.61 22.9301 26.225 22.6601 26.735 22.1201C27.245 21.5801 27.5 20.9501 27.5 20.2301V2.77005C27.5 2.05005 27.245 1.42005 26.735 0.880053C26.225 0.340054 25.61 0.0700531 24.89 0.0700531ZM24.89 21.8501H3.11C2.69 21.8501 2.33 21.7001 2.03 21.4001C1.73 21.1001 1.58 20.7101 1.58 20.2301V16.5401H26.42V20.2301C26.42 20.7101 26.27 21.1001 25.97 21.4001C25.67 21.7001 25.31 21.8501 24.89 21.8501ZM5.81 17.6201C5.33 17.6201 4.94 17.7701 4.64 18.0701C4.34 18.3701 4.19 18.7451 4.19 19.1951C4.19 19.6451 4.34 20.0201 4.64 20.3201C4.94 20.6201 5.315 20.7701 5.765 20.7701C6.215 20.7701 6.59 20.6201 6.89 20.3201C7.19 20.0201 7.34 19.6451 7.34 19.1951C7.34 18.7451 7.19 18.3701 6.89 18.0701C6.59 17.7701 6.23 17.6201 5.81 17.6201ZM5.81 19.6901C5.63 19.6901 5.495 19.6451 5.405 19.5551C5.315 19.4651 5.27 19.3451 5.27 19.1951C5.27 19.0451 5.315 18.9251 5.405 18.8351C5.495 18.7451 5.615 18.7001 5.765 18.7001C5.915 18.7001 6.035 18.7451 6.125 18.8351C6.215 18.9251 6.26 19.0451 6.26 19.1951C6.26 19.3451 6.215 19.4651 6.125 19.5551C6.035 19.6451 5.93 19.6901 5.81 19.6901ZM23.27 18.7001H10.13C10.01 18.7001 9.89 18.7451 9.77 18.8351C9.65 18.9251 9.59 19.0451 9.59 19.1951C9.59 19.3451 9.65 19.4651 9.77 19.5551C9.89 19.6451 10.01 19.6901 10.13 19.6901H23.27C23.45 19.6901 23.585 19.6451 23.675 19.5551C23.765 19.4651 23.81 19.3451 23.81 19.1951C23.81 19.0451 23.765 18.9251 23.675 18.8351C23.585 18.7451 23.45 18.7001 23.27 18.7001ZM11.3 6.73005V9.97005C11.3 10.5101 11.54 10.9301 12.02 11.2301C12.26 11.3501 12.515 11.4101 12.785 11.4101C13.055 11.4101 13.31 11.3501 13.55 11.2301L16.34 9.61005C16.82 9.31005 17.06 8.87505 17.06 8.30505C17.06 7.73505 16.82 7.30005 16.34 7.00005L13.55 5.47005C13.07 5.17005 12.575 5.15505 12.065 5.42505C11.555 5.69505 11.3 6.13005 11.3 6.73005ZM12.38 6.73005C12.38 6.55005 12.425 6.43005 12.515 6.37005C12.605 6.31005 12.695 6.28005 12.785 6.28005C12.875 6.28005 12.95 6.31005 13.01 6.37005L15.8 7.99005C15.98 8.05005 16.07 8.17005 16.07 8.35005C16.07 8.53005 15.98 8.65005 15.8 8.71005L13.01 10.3301C12.89 10.3901 12.755 10.3751 12.605 10.2851C12.455 10.1951 12.38 10.0901 12.38 9.97005V6.73005ZM14 1.15005C14.18 1.15005 14.315 1.10505 14.405 1.01505C14.495 0.925053 14.54 0.805054 14.54 0.655052C14.54 0.505053 14.495 0.370052 14.405 0.250053C14.315 0.130053 14.195 0.0700531 14.045 0.0700531C13.895 0.0700531 13.76 0.130053 13.64 0.250053C13.52 0.370052 13.46 0.505053 13.46 0.655052C13.46 0.805054 13.52 0.925053 13.64 1.01505C13.76 1.10505 13.88 1.15005 14 1.15005Z" fill="url(#paint0_linear_24_4605)"/>
<defs>
<linearGradient id="paint0_linear_24_4605" x1="14" y1="22.9301" x2="14" y2="0.0700531" gradientUnits="userSpaceOnUse">
<stop stop-color="white"/>
<stop offset="0.5" stop-color="#F8F8F8"/>
<stop offset="1" stop-color="white"/>
</linearGradient>
</defs>
</svg>
